<mxfile host="app.diagrams.net" agent="Mozilla/5.0 (Windows NT 10.0; Win64; x64) AppleWebKit/537.36 (KHTML, like Gecko) Chrome/134.0.0.0 Safari/537.36" version="26.1.0">
  <diagram name="Page-1" id="QcKtMgjPRR-LLv5RreKO">
    <mxGraphModel dx="1050" dy="563" grid="1" gridSize="10" guides="1" tooltips="1" connect="1" arrows="1" fold="1" page="1" pageScale="1" pageWidth="850" pageHeight="1100" math="0" shadow="0">
      <root>
        <mxCell id="0" />
        <mxCell id="1" parent="0" />
        <mxCell id="8Q-3A9a3a8bKrOW3x1Tt-5" value="Student" style="swimlane;fontStyle=1;align=center;verticalAlign=top;childLayout=stackLayout;horizontal=1;startSize=26;horizontalStack=0;resizeParent=1;resizeParentMax=0;resizeLast=0;collapsible=1;marginBottom=0;whiteSpace=wrap;html=1;" parent="1" vertex="1">
          <mxGeometry x="70" y="40" width="170" height="250" as="geometry" />
        </mxCell>
        <mxCell id="8Q-3A9a3a8bKrOW3x1Tt-6" value="+First name&lt;div&gt;+Last name&lt;/div&gt;&lt;div&gt;+email_address&lt;/div&gt;&lt;div&gt;+Courses_id&lt;/div&gt;&lt;div&gt;+Grades&lt;/div&gt;&lt;div&gt;+marks&lt;/div&gt;" style="text;strokeColor=none;fillColor=none;align=left;verticalAlign=top;spacingLeft=4;spacingRight=4;overflow=hidden;rotatable=0;points=[[0,0.5],[1,0.5]];portConstraint=eastwest;whiteSpace=wrap;html=1;" parent="8Q-3A9a3a8bKrOW3x1Tt-5" vertex="1">
          <mxGeometry y="26" width="170" height="104" as="geometry" />
        </mxCell>
        <mxCell id="8Q-3A9a3a8bKrOW3x1Tt-7" value="" style="line;strokeWidth=1;fillColor=none;align=left;verticalAlign=middle;spacingTop=-1;spacingLeft=3;spacingRight=3;rotatable=0;labelPosition=right;points=[];portConstraint=eastwest;strokeColor=inherit;" parent="8Q-3A9a3a8bKrOW3x1Tt-5" vertex="1">
          <mxGeometry y="130" width="170" height="8" as="geometry" />
        </mxCell>
        <mxCell id="8Q-3A9a3a8bKrOW3x1Tt-8" value="&lt;div&gt;+display_records() +add_new_student() +delete_new_student() +update_student_record()&lt;/div&gt;&lt;div&gt;+check_my_grades()&lt;br&gt;+check_my_marks()&lt;/div&gt;" style="text;strokeColor=none;fillColor=none;align=left;verticalAlign=top;spacingLeft=4;spacingRight=4;overflow=hidden;rotatable=0;points=[[0,0.5],[1,0.5]];portConstraint=eastwest;whiteSpace=wrap;html=1;" parent="8Q-3A9a3a8bKrOW3x1Tt-5" vertex="1">
          <mxGeometry y="138" width="170" height="112" as="geometry" />
        </mxCell>
        <mxCell id="8Q-3A9a3a8bKrOW3x1Tt-16" value="Professor" style="swimlane;fontStyle=1;align=center;verticalAlign=top;childLayout=stackLayout;horizontal=1;startSize=26;horizontalStack=0;resizeParent=1;resizeParentMax=0;resizeLast=0;collapsible=1;marginBottom=0;whiteSpace=wrap;html=1;" parent="1" vertex="1">
          <mxGeometry x="550" y="310" width="270" height="240" as="geometry" />
        </mxCell>
        <mxCell id="8Q-3A9a3a8bKrOW3x1Tt-17" value="+Name&lt;div&gt;+email_address&lt;/div&gt;&lt;div&gt;+Course_id&lt;/div&gt;&lt;div&gt;+rank&lt;/div&gt;" style="text;strokeColor=none;fillColor=none;align=left;verticalAlign=top;spacingLeft=4;spacingRight=4;overflow=hidden;rotatable=0;points=[[0,0.5],[1,0.5]];portConstraint=eastwest;whiteSpace=wrap;html=1;" parent="8Q-3A9a3a8bKrOW3x1Tt-16" vertex="1">
          <mxGeometry y="26" width="270" height="74" as="geometry" />
        </mxCell>
        <mxCell id="8Q-3A9a3a8bKrOW3x1Tt-18" value="" style="line;strokeWidth=1;fillColor=none;align=left;verticalAlign=middle;spacingTop=-1;spacingLeft=3;spacingRight=3;rotatable=0;labelPosition=right;points=[];portConstraint=eastwest;strokeColor=inherit;" parent="8Q-3A9a3a8bKrOW3x1Tt-16" vertex="1">
          <mxGeometry y="100" width="270" height="8" as="geometry" />
        </mxCell>
        <mxCell id="8Q-3A9a3a8bKrOW3x1Tt-19" value="+professors_details()&lt;div&gt;+add_new_professor()&lt;div&gt;+delete_professor()&amp;nbsp;&lt;/div&gt;&lt;div&gt;+modify_professor_details()&lt;/div&gt;&lt;div&gt;+load_professors()&lt;br&gt;&lt;/div&gt;&lt;div&gt;+save_professors()&lt;br&gt;+display_professors()&lt;br&gt;+show_course_details_by_professor()&lt;/div&gt;&lt;/div&gt;" style="text;strokeColor=none;fillColor=none;align=left;verticalAlign=top;spacingLeft=4;spacingRight=4;overflow=hidden;rotatable=0;points=[[0,0.5],[1,0.5]];portConstraint=eastwest;whiteSpace=wrap;html=1;" parent="8Q-3A9a3a8bKrOW3x1Tt-16" vertex="1">
          <mxGeometry y="108" width="270" height="132" as="geometry" />
        </mxCell>
        <mxCell id="8Q-3A9a3a8bKrOW3x1Tt-36" value="CheckMyGradeApp/main" style="swimlane;fontStyle=1;align=center;verticalAlign=top;childLayout=stackLayout;horizontal=1;startSize=26;horizontalStack=0;resizeParent=1;resizeParentMax=0;resizeLast=0;collapsible=1;marginBottom=0;whiteSpace=wrap;html=1;" parent="1" vertex="1">
          <mxGeometry x="330" y="470" width="170" height="180" as="geometry" />
        </mxCell>
        <mxCell id="8Q-3A9a3a8bKrOW3x1Tt-37" value="+students&amp;nbsp;&lt;div&gt;+courses&lt;/div&gt;&lt;div&gt;+professors&amp;nbsp;&lt;/div&gt;&lt;div&gt;+logins&lt;/div&gt;" style="text;strokeColor=none;fillColor=none;align=left;verticalAlign=top;spacingLeft=4;spacingRight=4;overflow=hidden;rotatable=0;points=[[0,0.5],[1,0.5]];portConstraint=eastwest;whiteSpace=wrap;html=1;" parent="8Q-3A9a3a8bKrOW3x1Tt-36" vertex="1">
          <mxGeometry y="26" width="170" height="74" as="geometry" />
        </mxCell>
        <mxCell id="8Q-3A9a3a8bKrOW3x1Tt-38" value="" style="line;strokeWidth=1;fillColor=none;align=left;verticalAlign=middle;spacingTop=-1;spacingLeft=3;spacingRight=3;rotatable=0;labelPosition=right;points=[];portConstraint=eastwest;strokeColor=inherit;" parent="8Q-3A9a3a8bKrOW3x1Tt-36" vertex="1">
          <mxGeometry y="100" width="170" height="8" as="geometry" />
        </mxCell>
        <mxCell id="8Q-3A9a3a8bKrOW3x1Tt-39" value="&lt;div&gt;+main()&lt;/div&gt;" style="text;strokeColor=none;fillColor=none;align=left;verticalAlign=top;spacingLeft=4;spacingRight=4;overflow=hidden;rotatable=0;points=[[0,0.5],[1,0.5]];portConstraint=eastwest;whiteSpace=wrap;html=1;" parent="8Q-3A9a3a8bKrOW3x1Tt-36" vertex="1">
          <mxGeometry y="108" width="170" height="72" as="geometry" />
        </mxCell>
        <mxCell id="8Q-3A9a3a8bKrOW3x1Tt-41" value="Grade" style="swimlane;fontStyle=1;align=center;verticalAlign=top;childLayout=stackLayout;horizontal=1;startSize=30;horizontalStack=0;resizeParent=1;resizeParentMax=0;resizeLast=0;collapsible=1;marginBottom=0;whiteSpace=wrap;html=1;" parent="1" vertex="1">
          <mxGeometry x="60" y="450" width="170" height="250" as="geometry" />
        </mxCell>
        <mxCell id="8Q-3A9a3a8bKrOW3x1Tt-42" value="+Grade_id &lt;br&gt;+Grade &lt;br&gt;+Marks range&amp;nbsp;" style="text;strokeColor=none;fillColor=none;align=left;verticalAlign=top;spacingLeft=4;spacingRight=4;overflow=hidden;rotatable=0;points=[[0,0.5],[1,0.5]];portConstraint=eastwest;whiteSpace=wrap;html=1;" parent="8Q-3A9a3a8bKrOW3x1Tt-41" vertex="1">
          <mxGeometry y="30" width="170" height="60" as="geometry" />
        </mxCell>
        <mxCell id="8Q-3A9a3a8bKrOW3x1Tt-43" value="" style="line;strokeWidth=1;fillColor=none;align=left;verticalAlign=middle;spacingTop=-1;spacingLeft=3;spacingRight=3;rotatable=0;labelPosition=right;points=[];portConstraint=eastwest;strokeColor=inherit;" parent="8Q-3A9a3a8bKrOW3x1Tt-41" vertex="1">
          <mxGeometry y="90" width="170" height="8" as="geometry" />
        </mxCell>
        <mxCell id="8Q-3A9a3a8bKrOW3x1Tt-44" value="+display_grade_report() +add_grade() &lt;br&gt;+delete_grade()&lt;div&gt;+modify_grade() &lt;/div&gt;&lt;div&gt;+get_course_scores()&lt;/div&gt;&lt;div&gt;+average_scores()&lt;/div&gt;&lt;div&gt;+median_scores()&lt;br&gt;&lt;br&gt;&lt;/div&gt;" style="text;strokeColor=none;fillColor=none;align=left;verticalAlign=top;spacingLeft=4;spacingRight=4;overflow=hidden;rotatable=0;points=[[0,0.5],[1,0.5]];portConstraint=eastwest;whiteSpace=wrap;html=1;" parent="8Q-3A9a3a8bKrOW3x1Tt-41" vertex="1">
          <mxGeometry y="98" width="170" height="152" as="geometry" />
        </mxCell>
        <mxCell id="6nEk_QV174e94a7W0Xeq-19" value="HAS - A" style="text;html=1;align=center;verticalAlign=middle;resizable=0;points=[];autosize=1;strokeColor=none;fillColor=none;" parent="1" vertex="1">
          <mxGeometry x="380" y="50" width="70" height="30" as="geometry" />
        </mxCell>
        <mxCell id="6nEk_QV174e94a7W0Xeq-26" value="" style="endArrow=none;html=1;rounded=0;exitX=0.5;exitY=0;exitDx=0;exitDy=0;entryX=0.452;entryY=1.019;entryDx=0;entryDy=0;entryPerimeter=0;" parent="1" source="8Q-3A9a3a8bKrOW3x1Tt-41" target="8Q-3A9a3a8bKrOW3x1Tt-8" edge="1">
          <mxGeometry relative="1" as="geometry">
            <mxPoint x="290" y="310" as="sourcePoint" />
            <mxPoint x="450" y="310" as="targetPoint" />
          </mxGeometry>
        </mxCell>
        <mxCell id="6nEk_QV174e94a7W0Xeq-27" value="N" style="resizable=0;html=1;whiteSpace=wrap;align=right;verticalAlign=bottom;" parent="6nEk_QV174e94a7W0Xeq-26" connectable="0" vertex="1">
          <mxGeometry x="1" relative="1" as="geometry">
            <mxPoint x="-17" y="29" as="offset" />
          </mxGeometry>
        </mxCell>
        <mxCell id="6nEk_QV174e94a7W0Xeq-28" value="1" style="text;html=1;align=center;verticalAlign=middle;resizable=0;points=[];autosize=1;strokeColor=none;fillColor=none;" parent="1" vertex="1">
          <mxGeometry x="110" y="400" width="30" height="30" as="geometry" />
        </mxCell>
        <mxCell id="6nEk_QV174e94a7W0Xeq-29" value="HAS - A" style="text;html=1;align=center;verticalAlign=middle;resizable=0;points=[];autosize=1;strokeColor=none;fillColor=none;" parent="1" vertex="1">
          <mxGeometry x="100" y="330" width="70" height="30" as="geometry" />
        </mxCell>
        <mxCell id="6nEk_QV174e94a7W0Xeq-30" value="" style="endArrow=none;html=1;rounded=0;entryX=0.415;entryY=1.01;entryDx=0;entryDy=0;entryPerimeter=0;" parent="1" target="8Q-3A9a3a8bKrOW3x1Tt-14" edge="1">
          <mxGeometry relative="1" as="geometry">
            <mxPoint x="665" y="310" as="sourcePoint" />
            <mxPoint x="666" y="174" as="targetPoint" />
          </mxGeometry>
        </mxCell>
        <mxCell id="6nEk_QV174e94a7W0Xeq-31" value="N" style="resizable=0;html=1;whiteSpace=wrap;align=right;verticalAlign=bottom;" parent="6nEk_QV174e94a7W0Xeq-30" connectable="0" vertex="1">
          <mxGeometry x="1" relative="1" as="geometry">
            <mxPoint x="-6" y="16" as="offset" />
          </mxGeometry>
        </mxCell>
        <mxCell id="6nEk_QV174e94a7W0Xeq-34" value="1" style="text;html=1;align=center;verticalAlign=middle;resizable=0;points=[];autosize=1;strokeColor=none;fillColor=none;" parent="1" vertex="1">
          <mxGeometry x="640" y="280" width="30" height="30" as="geometry" />
        </mxCell>
        <mxCell id="8Q-3A9a3a8bKrOW3x1Tt-11" value="Course" style="swimlane;fontStyle=1;align=center;verticalAlign=top;childLayout=stackLayout;horizontal=1;startSize=26;horizontalStack=0;resizeParent=1;resizeParentMax=0;resizeLast=0;collapsible=1;marginBottom=0;whiteSpace=wrap;html=1;" parent="1" vertex="1">
          <mxGeometry x="590" y="60" width="180" height="160" as="geometry" />
        </mxCell>
        <mxCell id="8Q-3A9a3a8bKrOW3x1Tt-12" value="+Course_id&lt;div&gt;+Course_name&lt;/div&gt;&lt;div&gt;+Description&lt;/div&gt;" style="text;strokeColor=none;fillColor=none;align=left;verticalAlign=top;spacingLeft=4;spacingRight=4;overflow=hidden;rotatable=0;points=[[0,0.5],[1,0.5]];portConstraint=eastwest;whiteSpace=wrap;html=1;" parent="8Q-3A9a3a8bKrOW3x1Tt-11" vertex="1">
          <mxGeometry y="26" width="180" height="54" as="geometry" />
        </mxCell>
        <mxCell id="8Q-3A9a3a8bKrOW3x1Tt-13" value="" style="line;strokeWidth=1;fillColor=none;align=left;verticalAlign=middle;spacingTop=-1;spacingLeft=3;spacingRight=3;rotatable=0;labelPosition=right;points=[];portConstraint=eastwest;strokeColor=inherit;" parent="8Q-3A9a3a8bKrOW3x1Tt-11" vertex="1">
          <mxGeometry y="80" width="180" height="8" as="geometry" />
        </mxCell>
        <mxCell id="8Q-3A9a3a8bKrOW3x1Tt-14" value="+display_courses()&lt;div&gt;+add_courses()&lt;br&gt;+modify_courses()&lt;/div&gt;&lt;div&gt;+delete_course()&lt;/div&gt;" style="text;strokeColor=none;fillColor=none;align=left;verticalAlign=top;spacingLeft=4;spacingRight=4;overflow=hidden;rotatable=0;points=[[0,0.5],[1,0.5]];portConstraint=eastwest;whiteSpace=wrap;html=1;" parent="8Q-3A9a3a8bKrOW3x1Tt-11" vertex="1">
          <mxGeometry y="88" width="180" height="72" as="geometry" />
        </mxCell>
        <mxCell id="8Q-3A9a3a8bKrOW3x1Tt-32" value="LoginUser " style="swimlane;fontStyle=1;align=center;verticalAlign=top;childLayout=stackLayout;horizontal=1;startSize=30;horizontalStack=0;resizeParent=1;resizeParentMax=0;resizeLast=0;collapsible=1;marginBottom=0;whiteSpace=wrap;html=1;" parent="1" vertex="1">
          <mxGeometry x="320" y="186" width="170" height="144" as="geometry" />
        </mxCell>
        <mxCell id="8Q-3A9a3a8bKrOW3x1Tt-33" value="+Email_id&lt;div&gt;+password&lt;/div&gt;" style="text;strokeColor=none;fillColor=none;align=left;verticalAlign=top;spacingLeft=4;spacingRight=4;overflow=hidden;rotatable=0;points=[[0,0.5],[1,0.5]];portConstraint=eastwest;whiteSpace=wrap;html=1;" parent="8Q-3A9a3a8bKrOW3x1Tt-32" vertex="1">
          <mxGeometry y="30" width="170" height="34" as="geometry" />
        </mxCell>
        <mxCell id="8Q-3A9a3a8bKrOW3x1Tt-34" value="" style="line;strokeWidth=1;fillColor=none;align=left;verticalAlign=middle;spacingTop=-1;spacingLeft=3;spacingRight=3;rotatable=0;labelPosition=right;points=[];portConstraint=eastwest;strokeColor=inherit;" parent="8Q-3A9a3a8bKrOW3x1Tt-32" vertex="1">
          <mxGeometry y="64" width="170" height="8" as="geometry" />
        </mxCell>
        <mxCell id="8Q-3A9a3a8bKrOW3x1Tt-35" value="+login()&lt;div&gt;+change_password()&lt;/div&gt;&lt;div&gt;+encrypt_password&lt;/div&gt;&lt;div&gt;+decrypt_password&lt;/div&gt;" style="text;strokeColor=none;fillColor=none;align=left;verticalAlign=top;spacingLeft=4;spacingRight=4;overflow=hidden;rotatable=0;points=[[0,0.5],[1,0.5]];portConstraint=eastwest;whiteSpace=wrap;html=1;" parent="8Q-3A9a3a8bKrOW3x1Tt-32" vertex="1">
          <mxGeometry y="72" width="170" height="72" as="geometry" />
        </mxCell>
        <mxCell id="6nEk_QV174e94a7W0Xeq-39" value="" style="endArrow=none;html=1;rounded=0;exitX=0.993;exitY=0.62;exitDx=0;exitDy=0;exitPerimeter=0;entryX=0.01;entryY=0.059;entryDx=0;entryDy=0;entryPerimeter=0;" parent="1" edge="1">
          <mxGeometry relative="1" as="geometry">
            <mxPoint x="239.99999999999994" y="90.9499999999999" as="sourcePoint" />
            <mxPoint x="592.99" y="90.00399999999999" as="targetPoint" />
          </mxGeometry>
        </mxCell>
        <mxCell id="6nEk_QV174e94a7W0Xeq-40" value="M" style="resizable=0;html=1;whiteSpace=wrap;align=left;verticalAlign=bottom;" parent="6nEk_QV174e94a7W0Xeq-39" connectable="0" vertex="1">
          <mxGeometry x="-1" relative="1" as="geometry">
            <mxPoint x="10" y="-3" as="offset" />
          </mxGeometry>
        </mxCell>
        <mxCell id="6nEk_QV174e94a7W0Xeq-41" value="N" style="resizable=0;html=1;whiteSpace=wrap;align=right;verticalAlign=bottom;" parent="6nEk_QV174e94a7W0Xeq-39" connectable="0" vertex="1">
          <mxGeometry x="1" relative="1" as="geometry">
            <mxPoint x="-13" as="offset" />
          </mxGeometry>
        </mxCell>
        <mxCell id="6nEk_QV174e94a7W0Xeq-43" value="HAS - A" style="text;html=1;align=center;verticalAlign=middle;resizable=0;points=[];autosize=1;strokeColor=none;fillColor=none;" parent="1" vertex="1">
          <mxGeometry x="660" y="250" width="70" height="30" as="geometry" />
        </mxCell>
        <mxCell id="6nEk_QV174e94a7W0Xeq-44" value="" style="endArrow=none;dashed=1;html=1;rounded=0;exitX=1;exitY=0.5;exitDx=0;exitDy=0;entryX=0.486;entryY=1.037;entryDx=0;entryDy=0;entryPerimeter=0;" parent="1" source="8Q-3A9a3a8bKrOW3x1Tt-39" target="8Q-3A9a3a8bKrOW3x1Tt-19" edge="1">
          <mxGeometry width="50" height="50" relative="1" as="geometry">
            <mxPoint x="560" y="520" as="sourcePoint" />
            <mxPoint x="610" y="470" as="targetPoint" />
            <Array as="points">
              <mxPoint x="681" y="614" />
            </Array>
          </mxGeometry>
        </mxCell>
        <mxCell id="6nEk_QV174e94a7W0Xeq-45" value="" style="endArrow=none;dashed=1;html=1;rounded=0;exitX=0.433;exitY=-0.011;exitDx=0;exitDy=0;exitPerimeter=0;" parent="1" source="6nEk_QV174e94a7W0Xeq-59" target="8Q-3A9a3a8bKrOW3x1Tt-35" edge="1">
          <mxGeometry width="50" height="50" relative="1" as="geometry">
            <mxPoint x="400" y="460" as="sourcePoint" />
            <mxPoint x="409.8900000000001" y="332.3760000000001" as="targetPoint" />
          </mxGeometry>
        </mxCell>
        <mxCell id="6nEk_QV174e94a7W0Xeq-47" value="" style="endArrow=none;dashed=1;html=1;rounded=0;entryX=0;entryY=0.631;entryDx=0;entryDy=0;entryPerimeter=0;exitX=1;exitY=0.5;exitDx=0;exitDy=0;" parent="1" source="8Q-3A9a3a8bKrOW3x1Tt-44" target="8Q-3A9a3a8bKrOW3x1Tt-39" edge="1">
          <mxGeometry width="50" height="50" relative="1" as="geometry">
            <mxPoint x="230" y="540" as="sourcePoint" />
            <mxPoint x="280" y="490" as="targetPoint" />
          </mxGeometry>
        </mxCell>
        <mxCell id="6nEk_QV174e94a7W0Xeq-49" value="" style="endArrow=none;dashed=1;html=1;rounded=0;exitX=1;exitY=0.5;exitDx=0;exitDy=0;" parent="1" source="8Q-3A9a3a8bKrOW3x1Tt-37" edge="1">
          <mxGeometry width="50" height="50" relative="1" as="geometry">
            <mxPoint x="530" y="530" as="sourcePoint" />
            <mxPoint x="590" y="110" as="targetPoint" />
            <Array as="points">
              <mxPoint x="530" y="533" />
              <mxPoint x="530" y="110" />
            </Array>
          </mxGeometry>
        </mxCell>
        <mxCell id="6nEk_QV174e94a7W0Xeq-50" value="" style="endArrow=none;dashed=1;html=1;rounded=0;exitX=1.01;exitY=0.359;exitDx=0;exitDy=0;exitPerimeter=0;entryX=0;entryY=0.5;entryDx=0;entryDy=0;" parent="1" source="8Q-3A9a3a8bKrOW3x1Tt-8" target="8Q-3A9a3a8bKrOW3x1Tt-37" edge="1">
          <mxGeometry width="50" height="50" relative="1" as="geometry">
            <mxPoint x="540" y="370" as="sourcePoint" />
            <mxPoint x="280" y="550" as="targetPoint" />
            <Array as="points">
              <mxPoint x="280" y="218" />
              <mxPoint x="280" y="533" />
            </Array>
          </mxGeometry>
        </mxCell>
        <mxCell id="6nEk_QV174e94a7W0Xeq-51" value="" style="endArrow=none;dashed=1;html=1;rounded=0;exitX=1;exitY=0.5;exitDx=0;exitDy=0;entryX=0.218;entryY=0.015;entryDx=0;entryDy=0;entryPerimeter=0;" parent="1" source="8Q-3A9a3a8bKrOW3x1Tt-33" target="8Q-3A9a3a8bKrOW3x1Tt-16" edge="1">
          <mxGeometry width="50" height="50" relative="1" as="geometry">
            <mxPoint x="540" y="370" as="sourcePoint" />
            <mxPoint x="590" y="320" as="targetPoint" />
            <Array as="points">
              <mxPoint x="609" y="233" />
            </Array>
          </mxGeometry>
        </mxCell>
        <mxCell id="6nEk_QV174e94a7W0Xeq-52" value="" style="endArrow=none;dashed=1;html=1;rounded=0;exitX=1;exitY=0.5;exitDx=0;exitDy=0;entryX=0.5;entryY=0;entryDx=0;entryDy=0;" parent="1" source="8Q-3A9a3a8bKrOW3x1Tt-6" target="8Q-3A9a3a8bKrOW3x1Tt-32" edge="1">
          <mxGeometry width="50" height="50" relative="1" as="geometry">
            <mxPoint x="540" y="370" as="sourcePoint" />
            <mxPoint x="590" y="320" as="targetPoint" />
            <Array as="points">
              <mxPoint x="405" y="118" />
            </Array>
          </mxGeometry>
        </mxCell>
        <mxCell id="6nEk_QV174e94a7W0Xeq-53" value="Authenticates" style="text;html=1;align=center;verticalAlign=middle;resizable=0;points=[];autosize=1;strokeColor=none;fillColor=none;" parent="1" vertex="1">
          <mxGeometry x="380" y="130" width="100" height="30" as="geometry" />
        </mxCell>
        <mxCell id="6nEk_QV174e94a7W0Xeq-54" value="Manages" style="text;html=1;align=center;verticalAlign=middle;resizable=0;points=[];autosize=1;strokeColor=none;fillColor=none;rotation=-90;" parent="1" vertex="1">
          <mxGeometry x="220" y="360" width="70" height="30" as="geometry" />
        </mxCell>
        <mxCell id="6nEk_QV174e94a7W0Xeq-56" value="Manages" style="text;html=1;align=center;verticalAlign=middle;resizable=0;points=[];autosize=1;strokeColor=none;fillColor=none;rotation=-90;" parent="1" vertex="1">
          <mxGeometry x="475" y="400" width="70" height="30" as="geometry" />
        </mxCell>
        <mxCell id="6nEk_QV174e94a7W0Xeq-57" value="Manages" style="text;html=1;align=center;verticalAlign=middle;resizable=0;points=[];autosize=1;strokeColor=none;fillColor=none;" parent="1" vertex="1">
          <mxGeometry x="545" y="610" width="70" height="30" as="geometry" />
        </mxCell>
        <mxCell id="6nEk_QV174e94a7W0Xeq-58" value="Manages" style="text;html=1;align=center;verticalAlign=middle;resizable=0;points=[];autosize=1;strokeColor=none;fillColor=none;" parent="1" vertex="1">
          <mxGeometry x="240" y="560" width="70" height="30" as="geometry" />
        </mxCell>
        <mxCell id="6nEk_QV174e94a7W0Xeq-60" value="" style="endArrow=none;dashed=1;html=1;rounded=0;exitX=0.433;exitY=-0.011;exitDx=0;exitDy=0;exitPerimeter=0;" parent="1" source="8Q-3A9a3a8bKrOW3x1Tt-36" target="6nEk_QV174e94a7W0Xeq-59" edge="1">
          <mxGeometry width="50" height="50" relative="1" as="geometry">
            <mxPoint x="404" y="467" as="sourcePoint" />
            <mxPoint x="405" y="330" as="targetPoint" />
          </mxGeometry>
        </mxCell>
        <mxCell id="6nEk_QV174e94a7W0Xeq-59" value="Manages" style="text;html=1;align=center;verticalAlign=middle;resizable=0;points=[];autosize=1;strokeColor=none;fillColor=none;" parent="1" vertex="1">
          <mxGeometry x="370" y="390" width="70" height="30" as="geometry" />
        </mxCell>
        <mxCell id="6nEk_QV174e94a7W0Xeq-61" value="Authenticates" style="text;html=1;align=center;verticalAlign=middle;resizable=0;points=[];autosize=1;strokeColor=none;fillColor=none;" parent="1" vertex="1">
          <mxGeometry x="515" y="230" width="100" height="30" as="geometry" />
        </mxCell>
      </root>
    </mxGraphModel>
  </diagram>
</mxfile>
